<?xml version="1.0" encoding="UTF-8" standalone="no"?>
<!DOCTYPE svg PUBLIC "-//W3C//DTD SVG 1.1//EN" "http://www.w3.org/Graphics/SVG/1.1/DTD/svg11.dtd">
<svg width="100%" height="100%" viewBox="0 0 396 490" version="1.1" xmlns="http://www.w3.org/2000/svg" xmlns:xlink="http://www.w3.org/1999/xlink" xml:space="preserve" xmlns:serif="http://www.serif.com/" style="fill-rule:evenodd;clip-rule:evenodd;stroke-linejoin:round;stroke-miterlimit:2;">
    <g transform="matrix(1,0,0,1,0,-1.81665)">
        <g transform="matrix(4.16667,0,0,4.16667,0,0)">
            <rect x="1.898" y="3.705" width="90.373" height="110.943" style="fill:rgb(255,207,1);fill-rule:nonzero;"/>
            <path d="M56.861,101.637C59.1,101.637 59.368,101.851 59.368,103.606C59.368,105.29 59.1,105.487 56.861,105.487C54.605,105.487 54.336,105.29 54.336,103.606C54.336,101.851 54.605,101.637 56.861,101.637ZM56.861,96.282C58.831,96.282 59.082,96.479 59.082,98.019C59.082,99.613 58.831,99.81 56.861,99.81C54.873,99.81 54.622,99.613 54.622,98.019C54.622,96.479 54.873,96.282 56.861,96.282ZM51.9,103.839C51.9,106.973 52.42,107.313 56.861,107.313C61.285,107.313 61.804,106.973 61.804,103.839C61.804,101.6 61.517,100.92 59.745,100.705C61.249,100.49 61.5,99.792 61.5,97.929C61.5,94.939 61.016,94.455 56.861,94.455C52.688,94.455 52.187,94.939 52.187,97.929C52.187,99.792 52.438,100.49 53.96,100.705C52.187,100.92 51.9,101.618 51.9,103.839Z" style="fill-rule:nonzero;"/>
            <path d="M35.885,101.637C38.124,101.637 38.392,101.851 38.392,103.606C38.392,105.29 38.124,105.487 35.885,105.487C33.628,105.487 33.36,105.29 33.36,103.606C33.36,101.851 33.628,101.637 35.885,101.637ZM35.885,96.282C37.855,96.282 38.106,96.479 38.106,98.019C38.106,99.613 37.855,99.81 35.885,99.81C33.897,99.81 33.646,99.613 33.646,98.019C33.646,96.479 33.897,96.282 35.885,96.282ZM30.924,103.839C30.924,106.973 31.444,107.313 35.885,107.313C40.309,107.313 40.828,106.973 40.828,103.839C40.828,101.6 40.541,100.92 38.768,100.705C40.273,100.49 40.523,99.792 40.523,97.929C40.523,94.939 40.04,94.455 35.885,94.455C31.712,94.455 31.211,94.939 31.211,97.929C31.211,99.792 31.462,100.49 32.984,100.705C31.211,100.92 30.924,101.618 30.924,103.839Z" style="fill-rule:nonzero;"/>
            <path d="M77.712,105.487C75.545,105.487 75.348,105.29 75.348,103.624L72.93,103.768C72.93,106.884 73.378,107.295 77.712,107.313C81.957,107.331 82.476,106.919 82.476,103.535C82.476,100.025 81.92,99.595 77.999,99.595C76.852,99.595 76.118,99.666 75.545,99.81L75.599,96.461L80.022,96.461L80.165,97.893L82.135,97.893L82.135,94.616L73.36,94.616L73.253,101.618C74.596,101.493 75.706,101.403 77.425,101.403C79.861,101.403 80.058,101.869 80.058,103.588C80.058,105.272 79.771,105.487 77.712,105.487Z" style="fill-rule:nonzero;"/>
            <path d="M71.037,14.89C71.204,14.595 71.458,14.2 71.702,13.831C71.533,13.403 71.244,12.731 71.085,12.697C70.908,12.659 70.108,13.774 69.622,14.828C70.289,14.787 70.785,14.847 71.037,14.89Z" style="fill-rule:nonzero;"/>
            <path d="M15.555,96.712L15.555,105.325L12.725,105.433L12.725,107.152L20.551,107.152L20.551,105.433L17.973,105.325L17.973,94.616L16.934,94.616L16.916,94.634L12.474,95.315L12.743,97.07L15.555,96.712Z" style="fill-rule:nonzero;"/>
            <path d="M91.399,114.42L3.551,114.42L3.551,87.064L91.399,87.064L91.399,114.42ZM59.104,71.999L57.305,72.795L51.954,74.292L47.618,74.882C47.618,74.882 44.489,75.081 43.596,74.502C42.706,73.925 39.838,74.2 39.578,74.21C39.316,74.218 37.246,74.814 35.695,75.307C35.225,75.456 34.701,75.63 34.197,75.802C33.422,75.267 31.67,74.242 29.405,74.078C29.405,74.078 29.16,73.68 29.077,72.987C28.993,72.291 28.625,66.844 28.813,65.617C29.002,64.39 32.07,62.422 34.72,60.177C37.371,57.934 37.967,55.066 37.967,55.066C37.967,55.066 38.733,53.761 39.532,53.325C40.33,52.89 42.725,53.27 44.435,53.964C46.144,54.659 55.42,54.096 55.42,54.096C55.412,55.548 56.802,61.948 57.269,63.617C57.571,64.7 58.115,67.05 58.493,68.611C58.854,70.125 59.073,71.76 59.104,71.999ZM3.551,4.306L91.399,4.306L91.399,76.928L90.247,75.282L86.924,72.524L81.942,69.651L79.506,69.216L77.206,68.774C77.206,68.774 74.882,67.201 74.101,67.229C73.317,67.256 71.67,68.34 71.67,68.34L69.784,68.407L69.152,68.809C68.958,68.034 68.772,67.172 68.771,67.158C68.584,66.163 68.353,64.883 68.345,64.674C68.332,64.326 68.104,62.824 68.079,62.127C68.055,61.432 67.524,59.534 67.524,59.534L67.416,51.636C66.637,52.347 65.722,53.068 64.927,53.369C64.927,53.369 63.202,59.999 63.684,64.451C63.862,64.946 64.024,65.36 64.137,65.579C64.407,66.112 65.056,67.773 65.508,68.957C65.635,69.286 65.847,69.967 65.977,70.392L65.745,70.498C65.608,70.225 65.449,69.912 65.298,69.634C64.924,68.949 63.106,69.276 62.748,69.028C62.484,68.843 62.407,68.198 62.384,67.875C62.384,67.814 62.379,67.751 62.376,67.689L62.376,67.688C62.359,67.409 62.333,67.154 62.333,67.154L62.387,65.331C62.387,65.306 62.489,54.476 63.633,50.42C63.636,50.411 63.638,50.402 63.639,50.393C63.643,50.382 63.646,50.37 63.649,50.36L63.651,50.36C63.668,50.294 63.688,50.229 63.707,50.176C63.707,50.176 66.696,50.272 70.02,46.276C71.021,44.899 72.249,42.654 72.579,41.634C72.667,41.363 72.75,41.077 72.826,40.787C72.524,39.938 72.096,39.075 71.53,38.68C71.53,38.68 72.461,38.7 73.121,38.888C73.132,38.417 73.09,37.964 72.957,37.554C72.565,36.347 73.783,34.619 74.405,34.19C75.03,33.762 74.99,32.659 74.979,32.311C74.97,32.086 74.785,31.623 74.694,31.093L74.692,31.094C74.692,31.094 74.007,28.96 74.333,27.611C74.333,27.611 74.308,29.479 76.02,29.731C76.153,29.738 76.289,29.747 76.427,29.762L76.433,29.762C77.134,29.833 77.873,29.981 78.309,30.043C79.284,30.181 79.729,28.715 79.729,28.715C79.729,28.715 80.294,28.229 80.969,27.567C81.641,26.903 81.923,26.661 81.778,25.852C81.633,25.043 77.396,21.883 77.396,21.883C77.396,21.883 77.397,21.875 77.399,21.861C76.526,21.205 75.706,20.616 75.356,20.44C75.356,20.44 75.972,19.946 76.466,20.235C76.894,20.484 76.396,20.736 77.437,21.549C77.475,21.162 77.499,20.516 77.33,20.027C77.128,19.449 75.358,17.779 74.57,17.056L73.926,18.388L74.349,14.377C74.393,13.376 74.378,12.394 74.195,11.947C73.928,11.293 73.288,11.975 72.724,12.777L72.725,12.777C72.075,13.815 71.4,15.516 71.4,15.516C71.4,15.516 70.36,15.434 69.38,15.427C69.377,15.43 69.374,15.438 69.373,15.444C69.024,15.429 68.495,15.43 67.942,15.516C67.881,15.528 67.832,15.536 67.788,15.539C67.173,15.648 66.543,15.865 66.099,16.282C64.919,17.39 62.033,21.153 62.033,21.153C62.033,21.153 59.12,24.22 58.551,24.587C57.985,24.957 57.149,25.974 55.48,26.44C55.48,26.44 55.178,27.068 55.088,27.587C55.047,28.212 55.116,28.877 55.463,29.361C55.463,29.361 54.956,29.03 54.32,28.649C52.354,30.032 47.164,32.915 46.66,33.261C46.037,33.69 43.599,35.403 41.691,35.645C41.691,35.645 28.943,38.352 28.289,39.485C25.394,40.746 24.542,42.517 24.024,43.652C23.432,44.952 21.899,49.248 20.263,52.21C18.624,55.173 13.099,58.275 12.31,58.942C11.52,59.609 10.41,59.415 11.855,60.874C13.302,62.334 16.944,61.798 19.586,60.949C19.699,60.911 19.814,60.868 19.93,60.819C20.055,60.735 20.218,60.653 20.432,60.579C20.783,60.391 21.139,60.163 21.491,59.905C22.975,58.538 23.953,55.859 23.953,55.859C23.861,55.693 23.771,55.509 23.681,55.304C23.352,54.483 22.988,52.858 24.223,51.205C24.096,53.022 24.46,54.818 25.984,55.997C26.669,56.364 26.826,57.111 26.826,57.111C27.366,59.206 25.825,61.599 24.359,62.871C23.306,63.784 23.247,63.948 23.354,64.974C23.367,65.009 26.314,73.871 25.446,77.087L23.704,77.61C23.704,77.61 24.502,72.021 23.513,67.632C23.484,68.57 23.365,69.661 23.239,70.73C23.239,70.73 22.659,75.374 22.077,76.304C21.863,76.647 21.888,77.294 22.003,77.971L19.78,78.661C19.78,78.661 16.68,79.73 16.25,79.856C15.818,79.983 13.987,79.956 13.987,79.956C13.987,79.956 11.114,80.015 10.593,80.078C10.072,80.139 7.847,81.264 7.847,81.264L5.932,81.332L3.551,82.14L3.551,4.306ZM0,0.436L0,118L94.95,118L94.95,0.436L0,0.436Z" style="fill-rule:nonzero;"/>
        </g>
    </g>
</svg>
