<?xml version="1.0" encoding="UTF-8" standalone="no"?>
<!DOCTYPE svg PUBLIC "-//W3C//DTD SVG 1.1//EN" "http://www.w3.org/Graphics/SVG/1.1/DTD/svg11.dtd">
<svg width="100%" height="100%" viewBox="0 0 512 512" version="1.1" xmlns="http://www.w3.org/2000/svg" xmlns:xlink="http://www.w3.org/1999/xlink" xml:space="preserve" xmlns:serif="http://www.serif.com/" style="fill-rule:evenodd;clip-rule:evenodd;stroke-linejoin:round;stroke-miterlimit:2;">
    <rect x="0" y="0" width="512" height="512"/>
    <g transform="matrix(0.547741,0,0,0.547741,109.248,130.3)">
        <path d="M505.749,475.587L360.149,329.987C388.352,295.15 405.333,250.883 405.333,202.67C405.333,90.926 314.41,0.003 202.666,0.003C90.922,0.003 0,90.925 0,202.669C0,314.413 90.923,405.336 202.667,405.336C250.88,405.336 295.147,388.355 329.984,360.152L475.584,505.752C479.744,509.912 485.205,512.003 490.667,512.003C496.129,512.003 501.59,509.912 505.75,505.752C514.091,497.411 514.091,483.928 505.749,475.587ZM202.667,362.669C114.432,362.669 42.667,290.904 42.667,202.669C42.667,114.434 114.432,42.669 202.667,42.669C290.902,42.669 362.667,114.434 362.667,202.669C362.667,290.904 290.901,362.669 202.667,362.669Z" style="fill:rgb(119,94,2);fill-rule:nonzero;"/>
    </g>
    <g transform="matrix(0.547741,0,0,0.547741,115.777,115.777)">
        <path d="M505.749,475.587L360.149,329.987C388.352,295.15 405.333,250.883 405.333,202.67C405.333,90.926 314.41,0.003 202.666,0.003C90.922,0.003 0,90.925 0,202.669C0,314.413 90.923,405.336 202.667,405.336C250.88,405.336 295.147,388.355 329.984,360.152L475.584,505.752C479.744,509.912 485.205,512.003 490.667,512.003C496.129,512.003 501.59,509.912 505.75,505.752C514.091,497.411 514.091,483.928 505.749,475.587ZM202.667,362.669C114.432,362.669 42.667,290.904 42.667,202.669C42.667,114.434 114.432,42.669 202.667,42.669C290.902,42.669 362.667,114.434 362.667,202.669C362.667,290.904 290.901,362.669 202.667,362.669Z" style="fill:rgb(255,204,1);fill-rule:nonzero;"/>
    </g>
</svg>
