<?xml version="1.0" standalone="no"?>
<!DOCTYPE svg PUBLIC "-//W3C//DTD SVG 20010904//EN"
 "http://www.w3.org/TR/2001/REC-SVG-20010904/DTD/svg10.dtd">
<svg version="1.0" xmlns="http://www.w3.org/2000/svg"
 width="700.000000pt" height="700.000000pt" viewBox="0 0 700.000000 700.000000"
 preserveAspectRatio="xMidYMid meet">
<metadata>
Created by potrace 1.11, written by Peter Selinger 2001-2013
</metadata>
<g transform="translate(0.000000,700.000000) scale(0.100000,-0.100000)"
fill="#000000" stroke="none">
<path d="M2975 5413 c-187 -18 -364 -68 -540 -153 -149 -72 -271 -158 -390
-275 -124 -121 -182 -197 -269 -347 -58 -100 -209 -449 -222 -511 -2 -10 -6
-27 -9 -37 -6 -20 -10 -37 -26 -115 -35 -179 -30 -424 12 -605 107 -458 399
-826 824 -1038 103 -51 306 -115 406 -127 24 -3 69 -9 100 -13 62 -9 258 -8
334 2 73 9 114 17 200 40 188 49 389 148 544 268 l25 19 555 -555 c382 -381
567 -560 591 -569 107 -41 215 34 215 149 0 45 4 55 26 70 58 39 81 122 51
187 -11 25 -200 221 -556 577 l-540 539 26 38 c13 21 42 76 62 123 21 47 54
119 73 160 70 148 125 335 140 478 18 163 5 396 -29 527 -5 22 -11 47 -13 55
-2 8 -11 38 -20 65 -139 410 -416 725 -798 905 -156 74 -264 105 -462 136 -43
7 -260 11 -310 7z m210 -526 c11 -3 40 -8 63 -12 98 -16 308 -100 397 -157
185 -121 341 -292 434 -475 86 -171 123 -322 126 -520 3 -118 -1 -161 -20
-253 -21 -98 -63 -215 -83 -230 -4 -3 -21 -25 -37 -50 -43 -64 -189 -208 -267
-264 -148 -104 -335 -180 -515 -210 -84 -13 -305 -15 -363 -2 -14 3 -38 8 -55
12 -337 66 -646 293 -814 597 -144 260 -185 583 -111 874 24 94 44 131 128
238 198 256 492 420 817 458 39 4 274 0 300 -6z"/>
</g>
</svg>
